<mxfile host="app.diagrams.net" agent="Mozilla/5.0 (Windows NT 10.0; Win64; x64) AppleWebKit/537.36 (KHTML, like Gecko) Chrome/129.0.0.0 Safari/537.36" version="24.8.2">
  <diagram name="第 1 页" id="1HEv6aPj7dTQOqCqd3Nl">
    <mxGraphModel dx="819" dy="426" grid="1" gridSize="10" guides="1" tooltips="1" connect="1" arrows="1" fold="1" page="1" pageScale="1" pageWidth="827" pageHeight="1169" math="0" shadow="0">
      <root>
        <mxCell id="0" />
        <mxCell id="1" parent="0" />
        <mxCell id="dvYsw_48BG4N-ZeCFaQW-3" value="" style="edgeStyle=orthogonalEdgeStyle;rounded=0;orthogonalLoop=1;jettySize=auto;html=1;" parent="1" source="dvYsw_48BG4N-ZeCFaQW-1" target="dvYsw_48BG4N-ZeCFaQW-2" edge="1">
          <mxGeometry relative="1" as="geometry" />
        </mxCell>
        <mxCell id="dvYsw_48BG4N-ZeCFaQW-1" value="定义figma规范" style="rounded=1;whiteSpace=wrap;html=1;" parent="1" vertex="1">
          <mxGeometry x="70" y="190" width="80" height="40" as="geometry" />
        </mxCell>
        <mxCell id="dvYsw_48BG4N-ZeCFaQW-5" value="" style="edgeStyle=orthogonalEdgeStyle;rounded=0;orthogonalLoop=1;jettySize=auto;html=1;" parent="1" source="dvYsw_48BG4N-ZeCFaQW-2" target="dvYsw_48BG4N-ZeCFaQW-4" edge="1">
          <mxGeometry relative="1" as="geometry" />
        </mxCell>
        <mxCell id="dvYsw_48BG4N-ZeCFaQW-2" value="设计UI" style="rounded=1;whiteSpace=wrap;html=1;" parent="1" vertex="1">
          <mxGeometry x="170" y="190" width="80" height="40" as="geometry" />
        </mxCell>
        <mxCell id="dvYsw_48BG4N-ZeCFaQW-7" value="" style="edgeStyle=orthogonalEdgeStyle;rounded=0;orthogonalLoop=1;jettySize=auto;html=1;" parent="1" source="dvYsw_48BG4N-ZeCFaQW-4" target="dvYsw_48BG4N-ZeCFaQW-6" edge="1">
          <mxGeometry relative="1" as="geometry" />
        </mxCell>
        <mxCell id="dvYsw_48BG4N-ZeCFaQW-4" value="生成data.json" style="rounded=1;whiteSpace=wrap;html=1;" parent="1" vertex="1">
          <mxGeometry x="280" y="190" width="80" height="40" as="geometry" />
        </mxCell>
        <mxCell id="dvYsw_48BG4N-ZeCFaQW-10" value="" style="edgeStyle=orthogonalEdgeStyle;rounded=0;orthogonalLoop=1;jettySize=auto;html=1;" parent="1" source="dvYsw_48BG4N-ZeCFaQW-6" target="dvYsw_48BG4N-ZeCFaQW-9" edge="1">
          <mxGeometry relative="1" as="geometry" />
        </mxCell>
        <mxCell id="dvYsw_48BG4N-ZeCFaQW-6" value="下载svg" style="rounded=1;whiteSpace=wrap;html=1;" parent="1" vertex="1">
          <mxGeometry x="450" y="190" width="80" height="40" as="geometry" />
        </mxCell>
        <mxCell id="dvYsw_48BG4N-ZeCFaQW-8" value="&lt;font style=&quot;font-size: 8px;&quot;&gt;根据json中的信息&lt;/font&gt;" style="text;html=1;align=center;verticalAlign=middle;resizable=0;points=[];autosize=1;strokeColor=none;fillColor=none;" parent="1" vertex="1">
          <mxGeometry x="360" y="188" width="90" height="30" as="geometry" />
        </mxCell>
        <mxCell id="dvYsw_48BG4N-ZeCFaQW-12" value="" style="edgeStyle=orthogonalEdgeStyle;rounded=0;orthogonalLoop=1;jettySize=auto;html=1;" parent="1" source="dvYsw_48BG4N-ZeCFaQW-9" target="dvYsw_48BG4N-ZeCFaQW-11" edge="1">
          <mxGeometry relative="1" as="geometry" />
        </mxCell>
        <mxCell id="dvYsw_48BG4N-ZeCFaQW-9" value="将svg转换成react组件" style="rounded=1;whiteSpace=wrap;html=1;" parent="1" vertex="1">
          <mxGeometry x="450" y="270" width="80" height="40" as="geometry" />
        </mxCell>
        <mxCell id="dvYsw_48BG4N-ZeCFaQW-11" value="打包发布" style="rounded=1;whiteSpace=wrap;html=1;" parent="1" vertex="1">
          <mxGeometry x="280" y="270" width="80" height="40" as="geometry" />
        </mxCell>
        <mxCell id="0SKtwo0eT8ypY2UYimZ_-13" value="" style="edgeStyle=orthogonalEdgeStyle;rounded=0;orthogonalLoop=1;jettySize=auto;html=1;" edge="1" parent="1" source="0SKtwo0eT8ypY2UYimZ_-14" target="0SKtwo0eT8ypY2UYimZ_-16">
          <mxGeometry relative="1" as="geometry" />
        </mxCell>
        <mxCell id="0SKtwo0eT8ypY2UYimZ_-14" value="定义figma规范" style="rounded=1;whiteSpace=wrap;html=1;" vertex="1" parent="1">
          <mxGeometry x="184" y="410" width="80" height="40" as="geometry" />
        </mxCell>
        <mxCell id="0SKtwo0eT8ypY2UYimZ_-15" value="" style="edgeStyle=orthogonalEdgeStyle;rounded=0;orthogonalLoop=1;jettySize=auto;html=1;" edge="1" parent="1" source="0SKtwo0eT8ypY2UYimZ_-16" target="0SKtwo0eT8ypY2UYimZ_-18">
          <mxGeometry relative="1" as="geometry" />
        </mxCell>
        <mxCell id="0SKtwo0eT8ypY2UYimZ_-16" value="设计UI" style="rounded=1;whiteSpace=wrap;html=1;" vertex="1" parent="1">
          <mxGeometry x="192" y="470" width="64" height="40" as="geometry" />
        </mxCell>
        <mxCell id="0SKtwo0eT8ypY2UYimZ_-17" value="" style="edgeStyle=orthogonalEdgeStyle;rounded=0;orthogonalLoop=1;jettySize=auto;html=1;" edge="1" parent="1" source="0SKtwo0eT8ypY2UYimZ_-18" target="0SKtwo0eT8ypY2UYimZ_-20">
          <mxGeometry relative="1" as="geometry" />
        </mxCell>
        <mxCell id="0SKtwo0eT8ypY2UYimZ_-18" value="生成data.json" style="rounded=1;whiteSpace=wrap;html=1;" vertex="1" parent="1">
          <mxGeometry x="184" y="530" width="80" height="40" as="geometry" />
        </mxCell>
        <mxCell id="0SKtwo0eT8ypY2UYimZ_-19" value="" style="edgeStyle=orthogonalEdgeStyle;rounded=0;orthogonalLoop=1;jettySize=auto;html=1;" edge="1" parent="1" source="0SKtwo0eT8ypY2UYimZ_-20" target="0SKtwo0eT8ypY2UYimZ_-23">
          <mxGeometry relative="1" as="geometry" />
        </mxCell>
        <mxCell id="0SKtwo0eT8ypY2UYimZ_-20" value="下载svg" style="rounded=1;whiteSpace=wrap;html=1;" vertex="1" parent="1">
          <mxGeometry x="184" y="600" width="80" height="40" as="geometry" />
        </mxCell>
        <mxCell id="0SKtwo0eT8ypY2UYimZ_-21" value="&lt;font style=&quot;font-size: 8px;&quot;&gt;根据json中的信息&lt;/font&gt;" style="text;html=1;align=center;verticalAlign=middle;resizable=0;points=[];autosize=1;strokeColor=none;fillColor=none;" vertex="1" parent="1">
          <mxGeometry x="210" y="570" width="90" height="30" as="geometry" />
        </mxCell>
        <mxCell id="0SKtwo0eT8ypY2UYimZ_-22" value="" style="edgeStyle=orthogonalEdgeStyle;rounded=0;orthogonalLoop=1;jettySize=auto;html=1;" edge="1" parent="1" source="0SKtwo0eT8ypY2UYimZ_-23" target="0SKtwo0eT8ypY2UYimZ_-24">
          <mxGeometry relative="1" as="geometry" />
        </mxCell>
        <mxCell id="0SKtwo0eT8ypY2UYimZ_-23" value="将svg转换成react组件" style="rounded=1;whiteSpace=wrap;html=1;" vertex="1" parent="1">
          <mxGeometry x="184" y="660" width="80" height="40" as="geometry" />
        </mxCell>
        <mxCell id="0SKtwo0eT8ypY2UYimZ_-24" value="打包发布" style="rounded=1;whiteSpace=wrap;html=1;" vertex="1" parent="1">
          <mxGeometry x="184" y="720" width="80" height="40" as="geometry" />
        </mxCell>
      </root>
    </mxGraphModel>
  </diagram>
</mxfile>
